<?xml version="1.0" encoding="UTF-8"?>
<svg version="1.1" xmlns="http://www.w3.org/2000/svg" width="32" height="32">
<path d="M0 0 C8.58 0 17.16 0 26 0 C26.0309375 6.125625 26.0309375 6.125625 26.0625 12.375 C26.071604 13.66196777 26.08070801 14.94893555 26.09008789 16.27490234 C26.09258545 17.28504395 26.09508301 18.29518555 26.09765625 19.3359375 C26.10551147 20.89127197 26.10551147 20.89127197 26.11352539 22.47802734 C26 25 26 25 25 27 C21.95827281 27.0271045 18.91679003 27.04688964 15.875 27.0625 C15.0190625 27.07087891 14.163125 27.07925781 13.28125 27.08789062 C12.02441406 27.09272461 12.02441406 27.09272461 10.7421875 27.09765625 C9.9776123 27.10289307 9.21303711 27.10812988 8.42529297 27.11352539 C5.59553847 26.98106758 2.7943089 26.46571815 0 26 C0 17.42 0 8.84 0 0 Z " fill="#262429" transform="translate(3,3)"/>
<path d="M0 0 C4.29 0 8.58 0 13 0 C13 1.65 13 3.3 13 5 C14.32 5 15.64 5 17 5 C17 9.29 17 13.58 17 18 C16.01 18 15.02 18 14 18 C14 16.68 14 15.36 14 14 C13.34 14 12.68 14 12 14 C12 14.99 12 15.98 12 17 C9.03 17.33 6.06 17.66 3 18 C3 17.34 3 16.68 3 16 C2.01 16 1.02 16 0 16 C0 10.72 0 5.44 0 0 Z " fill="#0B0CF0" transform="translate(5,5)"/>
<path d="M0 0 C8.58 0 17.16 0 26 0 C25.34 3.3 24.68 6.6 24 10 C22.35 10 20.7 10 19 10 C19 9.01 19 8.02 19 7 C17.68 7 16.36 7 15 7 C15 5.35 15 3.7 15 2 C13.02 2 11.04 2 9 2 C8.67 3.32 8.34 4.64 8 6 C8 4.68 8 3.36 8 2 C6.02 2 4.04 2 2 2 C2 3.98 2 5.96 2 8 C2.99 8.33 3.98 8.66 5 9 C4.01 9 3.02 9 2 9 C2 11.97 2 14.94 2 18 C2.99 18.33 3.98 18.66 5 19 C4.01 19 3.02 19 2 19 C2 20.98 2 22.96 2 25 C3.32 25.33 4.64 25.66 6 26 C4.02 26 2.04 26 0 26 C0 17.42 0 8.84 0 0 Z " fill="#030304" transform="translate(3,3)"/>
<path d="M0 0 C0.33 0 0.66 0 1 0 C1 7.59 1 15.18 1 23 C-1.97 22.67 -4.94 22.34 -8 22 C-8 20.68 -8 19.36 -8 18 C-7.34 18 -6.68 18 -6 18 C-6 14.7 -6 11.4 -6 8 C-4.35 8 -2.7 8 -1 8 C-1.020625 6.865625 -1.04125 5.73125 -1.0625 4.5625 C-1 1 -1 1 0 0 Z " fill="#6D746C" transform="translate(28,5)"/>
<path d="M0 0 C4.29 0 8.58 0 13 0 C13.25 7.625 13.25 7.625 11 11 C10.34 11 9.68 11 9 11 C8.34 9.35 7.68 7.7 7 6 C4.69 6 2.38 6 0 6 C0 4.02 0 2.04 0 0 Z " fill="#9FAB7D" transform="translate(5,5)"/>
<path d="M0 0 C2.64 0 5.28 0 8 0 C8 2.64 8 5.28 8 8 C6.35 8 4.7 8 3 8 C3 7.01 3 6.02 3 5 C2.01 5 1.02 5 0 5 C0 3.35 0 1.7 0 0 Z " fill="#630934" transform="translate(19,5)"/>
<path d="M0 0 C7.26 0 14.52 0 22 0 C21.67 0.99 21.34 1.98 21 3 C18.03 2.67 15.06 2.34 12 2 C12 3.65 12 5.3 12 7 C11.67 7 11.34 7 11 7 C11 5.35 11 3.7 11 2 C9.02 2 7.04 2 5 2 C4.67 3.32 4.34 4.64 4 6 C4 4.68 4 3.36 4 2 C2.68 2 1.36 2 0 2 C0 1.34 0 0.68 0 0 Z " fill="#282A2D" transform="translate(7,3)"/>
<path d="M0 0 C1.65 0 3.3 0 5 0 C5.25 6.625 5.25 6.625 3 10 C2.34 10 1.68 10 1 10 C-0.60725635 6.78548731 -0.05748185 3.56387464 0 0 Z " fill="#73AEF8" transform="translate(13,6)"/>
<path d="M0 0 C1.32 0 2.64 0 4 0 C4 2.64 4 5.28 4 8 C2.68 8 1.36 8 0 8 C0 5.36 0 2.72 0 0 Z " fill="#6AE599" transform="translate(22,13)"/>
<path d="M0 0 C0.99 0 1.98 0 3 0 C3 2.97 3 5.94 3 9 C2.01 9 1.02 9 0 9 C0 6.03 0 3.06 0 0 Z " fill="#6192D7" transform="translate(5,12)"/>
<path d="M0 0 C1.98 0 3.96 0 6 0 C6 1.32 6 2.64 6 4 C4.02 4 2.04 4 0 4 C0 2.68 0 1.36 0 0 Z " fill="#F3F778" transform="translate(20,23)"/>
<path d="M0 0 C1.98 0 3.96 0 6 0 C6 1.32 6 2.64 6 4 C4.02 4 2.04 4 0 4 C0 2.68 0 1.36 0 0 Z " fill="#F5F5FA" transform="translate(12,23)"/>
<path d="M0 0 C1.98 0 3.96 0 6 0 C6 1.65 6 3.3 6 5 C5.01 5 4.02 5 3 5 C3 4.34 3 3.68 3 3 C2.01 3 1.02 3 0 3 C0 2.01 0 1.02 0 0 Z " fill="#FE003A" transform="translate(20,6)"/>
<path d="M0 0 C2.475 0.495 2.475 0.495 5 1 C5 2.32 5 3.64 5 5 C3.35 5 1.7 5 0 5 C0 3.35 0 1.7 0 0 Z " fill="#DA8F6D" transform="translate(5,22)"/>
<path d="M0 0 C1.65 0 3.3 0 5 0 C4.34 1.65 3.68 3.3 3 5 C2.34 5 1.68 5 1 5 C0.67 3.35 0.34 1.7 0 0 Z " fill="#767B66" transform="translate(13,11)"/>
</svg>
